<svg xmlns="http://www.w3.org/2000/svg" viewBox="0 0 48 48"><defs><style>.cls-1{fill:#fbb03b;}.cls-2{fill:#4d4d4d;}</style></defs><g id="Layer_2" data-name="Layer 2"><g id="Layer_4" data-name="Layer 4"><rect class="cls-1" width="48" height="48"/><path class="cls-2" d="M24,9C14.47,9,7,13,7,18a17.07,17.07,0,0,0,8,14.41V34c0,2.85,3.87,5,9,5s9-2.15,9-5V32.41A17.07,17.07,0,0,0,41,18C41,13,33.53,9,24,9Zm8.5,22a11.63,11.63,0,0,1-1,.61l-.5.27a15.51,15.51,0,0,1-14,0l-.5-.27a11.63,11.63,0,0,1-1-.61,15.49,15.49,0,0,1-6.61-9.5c.09.1.18.21.28.31a6,6,0,0,0,.44.43,9.41,9.41,0,0,0,1,.78,15,15,0,0,0,2.11,1.24,19.44,19.44,0,0,0,2.05.83,19.38,19.38,0,0,0,2.52.72,29.09,29.09,0,0,0,6.31.73H24A29.68,29.68,0,0,0,29.72,26l.14,0h0A7.11,7.11,0,0,0,31,25.7h.08a22.68,22.68,0,0,0,3.32-1.08,16.2,16.2,0,0,0,1.77-.84,13.41,13.41,0,0,0,1.62-1.08c.2-.16.4-.32.58-.49a8.59,8.59,0,0,0,.67-.68l0-.05A15.47,15.47,0,0,1,32.5,31ZM24,37c-4,0-7-1.58-7-3V32.94a16.49,16.49,0,0,0,14,0V34C31,35.42,28,37,24,37Zm3.81-24.83c3.37.26,7.77,5.6,10.22,9a6,6,0,0,1-.45.42c-2.89-3.84-6.91-8.25-10.3-8.52-4-.31-10.66,1.5-13.81,4.4a9.53,9.53,0,0,0-2.12,1.35l0,0a6,6,0,0,1,1.17-1.4C16,14.19,23.83,11.85,27.81,12.17Zm3,12.55H30.8l-.11,0a5.29,5.29,0,0,1-.81.17l-.19,0-.06,0h0a14.42,14.42,0,0,1-4.54-.42,19,19,0,0,0-5.35-.51,6.54,6.54,0,0,0-2.42.69c-.47-.1-.92-.21-1.34-.34a6.26,6.26,0,0,1,2.93-1.11,17.91,17.91,0,0,1,5.06.49c2.76.55,5.37,1.06,8.51-.92.22.23.44.48.66.74h0a8.35,8.35,0,0,1-2.22,1.1Zm-7.41.77h0a28.93,28.93,0,0,1-4.22-.36c.2,0,.39-.06.59-.08a15.21,15.21,0,0,1,4,.28h0a3,3,0,0,0-.36.16ZM14,18.34a5.39,5.39,0,0,1,1.7-.43,12.58,12.58,0,0,1,2.12,0,26.33,26.33,0,0,1,2.95.48l.74.14a17.61,17.61,0,0,0,2.23.31h0c.23,0,.47,0,.71,0h.1c.22,0,.44,0,.65,0h.08c.21,0,.42,0,.63-.07H26l.16,0,.57-.13a1.57,1.57,0,0,0,.29-.08,7.79,7.79,0,0,1,1.12.56c-2.2.87-4.15.49-6.36.05A24.74,24.74,0,0,0,18,18.6h0a14,14,0,0,0-1.58,0,8.69,8.69,0,0,0-5.62,3.26h0c-.2-.16-.39-.32-.57-.49l.51-.6A9.51,9.51,0,0,1,14,18.34Zm2.54,1.29a12.43,12.43,0,0,1,1.49,0,23.92,23.92,0,0,1,3.58.52c2.46.49,4.81.94,7.53-.38.38.27.75.58,1.14.92-2.49,1.27-4.63.87-7.07.38a18.54,18.54,0,0,0-5.34-.51,8.1,8.1,0,0,0-5,2.62,11.39,11.39,0,0,1-1.2-.68A7.67,7.67,0,0,1,16.49,19.63Zm1.41,1.9A18,18,0,0,1,23,22c2.62.52,5.1,1,8-.65l.75.75c-2.74,1.65-5,1.2-7.62.68a19.2,19.2,0,0,0-5.33-.51,7.55,7.55,0,0,0-4,1.72h0c-.36-.13-.7-.26-1-.41A7,7,0,0,1,17.9,21.53Zm16.49,2h0c-.52-.61-1-1.17-1.47-1.66s-1-1-1.47-1.47a17.71,17.71,0,0,0-2-1.65,9.86,9.86,0,0,0-2.25-1.22l-.09,0a5,5,0,0,0-1.29-.29,13.8,13.8,0,0,0-2,0l-1,.12h-.07l-.62.11-.53.09h0l-.63-.12-1.06-.21a17.82,17.82,0,0,1,6.63-1c2.19.18,5.27,2.65,8.69,7A6.79,6.79,0,0,1,34.39,23.53Zm1.68-.86h0c-2.64-3.36-6.33-7.24-9.5-7.5a21.18,21.18,0,0,0-8.82,1.75,13.53,13.53,0,0,0-1.79,0A22.1,22.1,0,0,1,27.2,14.06c2.39.19,5.79,3.08,9.6,8.14C36.57,22.36,36.33,22.52,36.07,22.67Zm3.42-4.4a4.08,4.08,0,0,1-.65,1.86,2.22,2.22,0,0,1-.15.23c-2.71-3.7-6.34-7.86-9.59-8.93a4.86,4.86,0,0,0-1.21-.26c-.28,0-.58,0-.89,0h0c-4.38,0-11.64,2.3-15.11,5.5a5.44,5.44,0,0,0-2,3.6v0l-.33.39h0a3.62,3.62,0,0,1-.37-.53,4,4,0,0,1-.64-1.84,2.44,2.44,0,0,1,0-.27c0-4.14,7-7.5,15.5-7.5S39.5,13.86,39.5,18A2.44,2.44,0,0,1,39.49,18.27Z"/></g></g></svg>