<svg xmlns="http://www.w3.org/2000/svg" viewBox="0 0 48 48"><defs><style>.cls-1{fill:none;}</style></defs><g id="Layer_2" data-name="Layer 2"><rect class="cls-1" width="48" height="48"/></g><g id="Layer_1" data-name="Layer 1"><path d="M30.33,11.61a7,7,0,0,0-13.4,0c-4,1.25-6.3,3.48-6.3,6v2a13,13,0,0,0,7.77,11.9c-2.34.9-3.77,2.39-3.77,4.1,0,2.85,3.87,5,9,5s9-2.15,9-5c0-1.71-1.43-3.2-3.77-4.1a13,13,0,0,0,7.77-11.9v-2C36.63,15.09,34.29,12.86,30.33,11.61ZM24.7,31.09c-.35,0-.71.05-1.07.05s-.72,0-1.07-.05A11.52,11.52,0,0,1,12.15,20.25a7,7,0,0,0,1.37,1.25l.44.29c.14.09.28.18.43.26l0,0,.49.25.46.23a17.83,17.83,0,0,0,4.27,1.25l.55.09L21,24c.43.05.85.08,1.29.1l.83,0h1l.83,0c.44,0,.86-.05,1.29-.1l.81-.1.55-.09a17.83,17.83,0,0,0,4.27-1.25l.46-.23.49-.25,0,0c.15-.08.29-.17.43-.26l.44-.29a7,7,0,0,0,1.37-1.25A11.52,11.52,0,0,1,24.7,31.09Zm-1.07,8.05c-4.07,0-7.5-1.6-7.5-3.5,0-1.49,2.12-2.8,5-3.29v3.29a.5.5,0,0,0,1,0v-3a1,1,0,0,0,.41-.46c.36,0,.72,0,1.09,0s.73,0,1.09,0a1,1,0,0,0,.41.46v3a.5.5,0,0,0,1,0V32.35c2.88.49,5,1.8,5,3.29C31.13,37.54,27.7,39.14,23.63,39.14ZM18.31,12.26q.07-.28.18-.57a5.35,5.35,0,0,1,.94-1.6.35.35,0,0,0,.2.05A.47.47,0,0,0,20,10a.36.36,0,0,0,.11-.16.47.47,0,0,0,0-.38h0a5.48,5.48,0,0,1,7.09,0,.35.35,0,0,0-.05.2.51.51,0,0,0,.5.5.35.35,0,0,0,.2-.05,5.35,5.35,0,0,1,.94,1.6q.11.29.18.57a3.35,3.35,0,0,1,.11.55,2.73,2.73,0,0,1,.05.5h0s0,0,0,0a1.67,1.67,0,0,1,0,.32,1.21,1.21,0,0,1,0,.19,2.85,2.85,0,0,1,0,.51,5.48,5.48,0,0,1-3,4.24,4,4,0,0,1-.47.21,4.42,4.42,0,0,1-.48.15,5.36,5.36,0,0,1-2.9,0,4.42,4.42,0,0,1-.48-.15,4,4,0,0,1-.47-.21,5.48,5.48,0,0,1-3.05-4.24,2.85,2.85,0,0,1,0-.51,1.21,1.21,0,0,1,0-.19,1.67,1.67,0,0,1,0-.32s0,0,0,0h0a2.73,2.73,0,0,1,.05-.5A3.35,3.35,0,0,1,18.31,12.26Zm16.82,5.38a2.46,2.46,0,0,1,0,.28,2.36,2.36,0,0,1-.12.54c0,.09-.06.18-.1.27a2.1,2.1,0,0,1-.13.26,1.13,1.13,0,0,1-.12.21l-.14.19-.08.12h0a.7.7,0,0,0-.29,0,6.47,6.47,0,0,0-3.85-5.8l-.14-.07c0-.18,0-.35,0-.52C33.12,14.13,35.13,15.8,35.13,17.64Zm-2.22,3.21a.21.21,0,0,1-.1.06l-.34.21-.37.2c-.32.16-.67.33-1,.48l-.17.07-.57.21-.26.09-.32.1-.24.07c-.17.06-.35.1-.53.15s-.52.13-.79.18l-.36.07h-.07l-.66.12-.43.06-.59.08-.61,0h-.33c-.2,0-.41,0-.62,0h0l-.37,0h-.07a1.33,1.33,0,0,1-.2,0h-.48a3.59,3.59,0,0,1-.37-.5l0-.05a2.27,2.27,0,0,1-.19-.34,2,2,0,0,1-.15-.29,3.38,3.38,0,0,1-.18-.44A5.35,5.35,0,0,1,22.14,20a6.26,6.26,0,0,0,3,0,4.07,4.07,0,0,0,.5-.13l.51-.19A6.54,6.54,0,0,0,30,14.7a5.49,5.49,0,0,1,3.09,4.94c0,.16,0,.31,0,.46a4.92,4.92,0,0,1-.1.67h0ZM19.32,22.72a.45.45,0,0,1-.16,0c-.31-.06-.61-.13-.91-.21l-.1,0c-.3-.08-.6-.17-.89-.27h0c-.3-.09-.58-.2-.86-.31s-.56-.23-.82-.36a2.69,2.69,0,0,1-.38-.19c-.25-.14-.49-.27-.71-.41l-.2-.14a3.54,3.54,0,0,1-.08-.45,1.64,1.64,0,0,1,0-.22c0-.15,0-.3,0-.46a5.49,5.49,0,0,1,3.09-4.94,6.54,6.54,0,0,0,3.91,4.94,4.63,4.63,0,0,0,0,.65,4.86,4.86,0,0,0,.07.55c0,.12.05.25.08.37a2.17,2.17,0,0,0,.07.24,4.45,4.45,0,0,0,.32.86,2,2,0,0,0,.11.26h0a4.16,4.16,0,0,0,.28.51l-.33,0-.59,0-.65-.08L20,22.85Zm-2.17-9.6c0,.17,0,.34,0,.52l-.14.07a6.47,6.47,0,0,0-3.85,5.78h-.07l-.23,0a.76.76,0,0,1-.08-.11c-.08-.1-.15-.21-.22-.31a3.78,3.78,0,0,1-.17-.35c0-.09-.07-.18-.1-.27a1.09,1.09,0,0,1-.07-.24.43.43,0,0,1,0-.11.58.58,0,0,1,0-.19,2.46,2.46,0,0,1,0-.28C12.13,15.8,14.14,14.13,17.15,13.12Z"/><path d="M24,15.55l0,0h0Z"/><path d="M23.28,10a.48.48,0,0,0,.7,0,.36.36,0,0,0,.11-.16.47.47,0,0,0,0-.38A.36.36,0,0,0,24,9.29a.49.49,0,0,0-.54-.11.53.53,0,0,0-.27.27.47.47,0,0,0,0,.38A.36.36,0,0,0,23.28,10Z"/><path d="M21.28,12a.47.47,0,0,0,.35.15.43.43,0,0,0,.19,0A.36.36,0,0,0,22,12a.41.41,0,0,0,.14-.3.09.09,0,0,0,0,0,.47.47,0,0,0-.15-.35.42.42,0,0,0-.14-.09.44.44,0,0,0-.48,0h0a.18.18,0,0,0-.07,0,.47.47,0,0,0-.15.35.31.31,0,0,0,0,.13A.35.35,0,0,0,21.28,12Z"/><path d="M25.28,12a.48.48,0,0,0,.7,0,.35.35,0,0,0,.12-.22.31.31,0,0,0,0-.13.47.47,0,0,0-.15-.35.18.18,0,0,0-.07,0h0a.44.44,0,0,0-.48,0,.42.42,0,0,0-.14.09.47.47,0,0,0-.15.35.09.09,0,0,0,0,0A.41.41,0,0,0,25.28,12Z"/></g></svg>